<svg width="56" height="56" viewBox="0 0 56 56" fill="none" xmlns="http://www.w3.org/2000/svg">
<rect width="56" height="56" rx="8" fill="white"/>
<path d="M48.5721 3.83082C46.3736 2.83822 43.9357 2.28662 41.3681 2.28662C31.682 2.28662 23.8308 10.1378 23.8308 19.824C23.8308 19.8529 23.8308 19.8837 23.8327 19.9126H48.5725V3.83082H48.5721Z" fill="url(#paint0_linear_1920_362)"/>
<path d="M11.6059 36.0668C12.284 37.3053 13.0358 38.4976 13.8576 39.6354C14.9048 41.0858 16.063 42.4508 17.3202 43.7164C14.7988 41.195 11.3152 39.6354 7.46842 39.6354H7.46655V53.7254H21.398C21.3998 53.6722 21.3998 53.6195 21.3998 53.5668C21.3998 49.7588 19.8724 46.3082 17.3991 43.7952C19.326 45.724 21.4852 47.4203 23.8307 48.8418C28.9472 51.9423 34.95 53.7259 41.3699 53.7259C43.8418 53.7259 46.2503 53.4613 48.572 52.9587V35.8157C48.3788 35.9044 48.1823 35.9884 47.9858 36.0668C45.9442 36.9002 43.7098 37.3599 41.3676 37.3599C39.0254 37.3599 36.791 36.9002 34.7498 36.0668C28.369 33.4665 23.8662 27.2178 23.8321 19.9131H7.46842C7.48382 25.7656 8.98182 31.268 11.6059 36.0668Z" fill="url(#paint1_linear_1920_362)"/>
<defs>
<linearGradient id="paint0_linear_1920_362" x1="16.7683" y1="-12.1688" x2="70.6613" y2="54.4992" gradientUnits="userSpaceOnUse">
<stop stop-color="#792DF8"/>
<stop offset="1" stop-color="#C60A8D"/>
</linearGradient>
<linearGradient id="paint1_linear_1920_362" x1="-4.26498" y1="4.83368" x2="49.628" y2="71.5017" gradientUnits="userSpaceOnUse">
<stop stop-color="#792DF8"/>
<stop offset="1" stop-color="#C60A8D"/>
</linearGradient>
</defs>
</svg>
